<svg width="12" height="24" viewBox="0 0 12 24" fill="none" xmlns="http://www.w3.org/2000/svg">
<path d="M6 23.514C9.314 23.514 12 20.5747 12 15.4311C12 13.2266 11.5 9.55256 9.5 6.61331C9.75 8.81775 8.25 9.55256 8.25 9.55256C9 5.8785 7 0.734812 4 0C4.357 2.93925 4.5 5.8785 2 8.81775C0.75 10.2874 0 12.8284 0 15.4311C0 20.5747 2.686 23.514 6 23.514ZM6 22.0444C4.343 22.0444 3 20.5747 3 18.0029C3 16.9007 3.25 15.0636 4.25 13.594C4.125 14.6962 5 15.4311 5 15.4311C4.625 13.594 5.5 10.6548 7 10.2874C6.821 11.757 6.75 13.2266 8 14.6962C8.625 15.4311 9 16.7008 9 18.0029C9 20.5747 7.657 22.0444 6 22.0444Z" fill="#7C1C1C"/>
</svg>
